Coordinates
version=1
nRows=28
nColumns=38
inDegrees=no

Units are S.I. units (second, meters, Newtons, ...)
If the header above contains a line with 'inDegrees', this indicates whether rotational values are in degrees (yes) or radians (no).

endheader
time	pelvis_tilt	pelvis_list	pelvis_rotation	pelvis_tx	pelvis_ty	pelvis_tz	hip_flexion_r	hip_adduction_r	hip_rotation_r	knee_angle_r	ankle_angle_r	subtalar_angle_r	mtp_angle_r	hip_flexion_l	hip_adduction_l	hip_rotation_l	knee_angle_l	ankle_angle_l	subtalar_angle_l	mtp_angle_l	lumbar_extension	lumbar_bending	lumbar_rotation	arm_flex_r	arm_add_r	arm_rot_r	elbow_flex_r	pro_sup_r	wrist_flex_r	wrist_dev_r	arm_flex_l	arm_add_l	arm_rot_l	elbow_flex_l	pro_sup_l	wrist_flex_l	wrist_dev_l
0	1.90668	1.42316	-0.400941	0.713339	-0.402724	0.977154	-0.0353415	0.103331	-0.189662	0.166083	0.057475	0	0	-0.132278	-0.0908157	-0.186161	0	0.0443255	0	0	-0.100441	0.149102	0.0462523	-0.166591	-0.224796	0.141696	0.75549	1.18958	0	0	-0.0574616	-0.188606	0.515015	0.646289	0.89074	0	0
0.01	1.90072	1.42404	-0.393859	0.713834	-0.402029	0.977071	-0.035851	0.10379	-0.18844	0.16418	0.0574374	0	0	-0.131568	-0.0909906	-0.186177	0	0.0448003	0	0	-0.0964518	0.149972	0.0445524	-0.163332	-0.224492	0.142948	0.751868	1.18818	0	0	-0.0571857	-0.189359	0.518697	0.643964	0.887823	0	0
0.02	1.8997	1.42426	-0.391678	0.714327	-0.401451	0.976998	-0.0363239	0.104302	-0.189088	0.164206	0.0583949	0	0	-0.131793	-0.0915424	-0.185228	0	0.0452912	0	0	-0.0938115	0.151252	0.0434734	-0.160952	-0.224462	0.144185	0.751672	1.18469	0	0	-0.0571624	-0.190454	0.522064	0.643767	0.882619	0	0
0.03	1.89877	1.42444	-0.38973	0.714837	-0.400945	0.97692	-0.0365485	0.104833	-0.189877	0.164581	0.0594123	0	0	-0.131925	-0.0920814	-0.184334	0	0.0455617	0	0	-0.0914746	0.152357	0.0425936	-0.158827	-0.224497	0.14523	0.751451	1.18127	0	0	-0.057058	-0.192396	0.529442	0.646424	0.886161	0	0
0.04	1.89915	1.42464	-0.389342	0.715349	-0.400465	0.976852	-0.036882	0.10525	-0.190332	0.164952	0.0603418	0	0	-0.132192	-0.0924297	-0.184031	0	0.0459133	0	0	-0.0894534	0.153249	0.0421766	-0.157069	-0.224577	0.145604	0.751103	1.17878	0	0	-0.0567457	-0.19385	0.535075	0.648215	0.891342	0	0
0.05	1.90116	1.42474	-0.390723	0.71585	-0.400006	0.976804	-0.0373879	0.10562	-0.190647	0.165471	0.0612236	0	0	-0.132751	-0.0927452	-0.183979	0	0.0465181	0	0	-0.0879174	0.154119	0.0418965	-0.155416	-0.224642	0.14544	0.750854	1.17728	0	0	-0.0559986	-0.194846	0.539002	0.648759	0.894352	0	0
0.06	1.90282	1.42487	-0.39173	0.716362	-0.399554	0.976771	-0.0378647	0.10602	-0.191076	0.165943	0.062106	0	0	-0.133254	-0.0929978	-0.183846	0	0.0469163	0	0	-0.0864095	0.154873	0.041516	-0.15365	-0.224372	0.144767	0.749913	1.17709	0	0	-0.0554508	-0.195846	0.54211	0.649134	0.895713	0	0
0.07	1.90396	1.42492	-0.392294	0.716872	-0.399134	0.976733	-0.0382596	0.106522	-0.191494	0.166441	0.0629237	0	0	-0.133693	-0.0933605	-0.183757	0	0.0472287	0	0	-0.084993	0.155685	0.04139	-0.152081	-0.224327	0.144781	0.748602	1.17918	0	0	-0.055	-0.196711	0.544202	0.648936	0.893652	0	0
0.08	1.9028	1.42481	-0.390894	0.717366	-0.398809	0.97669	-0.0383919	0.107242	-0.191501	0.166887	0.0636114	0	0	-0.133966	-0.0939931	-0.183753	0	0.0474832	0	0	-0.0852648	0.156238	0.0478491	-0.152178	-0.201265	-0.0531351	0.773595	0.267903	0	0	-0.0498198	-0.198348	0.556103	0.647276	0.876151	0	0
0.09	1.90671	1.42461	-0.39446	0.717855	-0.398476	0.976679	-0.0394174	0.107803	-0.191395	0.166983	0.0642381	0	0	-0.134946	-0.0944799	-0.183757	0	0.0476236	0	0	-0.084825	0.156953	0.0485054	-0.149636	-0.201079	-0.0709328	0.770579	0.045607	0	0	-0.0487996	-0.199367	0.559271	0.647586	0.869742	0	0
0.1	1.90371	1.4069	-0.39277	0.718195	-0.399132	0.978219	-0.0297661	0.119222	-0.236282	0.19956	0.0692573	0	0	-0.141576	-0.112968	-0.188885	0	0.0477444	0	0	-0.0943566	0.177105	0.0533828	-0.144685	-0.205776	-0.0708202	0.768694	0.0333937	0	0	-0.0420448	-0.192904	0.561248	0.639344	0.870569	0	0
0.11	1.90706	1.40728	-0.395036	0.718673	-0.39921	0.978211	-0.0292536	0.118777	-0.239023	0.202346	0.0714086	0	0	-0.141966	-0.113008	-0.188624	0	0.0482793	0	0	-0.094109	0.177064	0.0529387	-0.142613	-0.205669	-0.071371	0.766846	0.017993	0	0	-0.0405861	-0.193707	0.564102	0.640349	0.875618	0	0
0.12	1.91297	1.40715	-0.400285	0.71917	-0.398983	0.97822	-0.0304323	0.119065	-0.239425	0.20261	0.0722361	0	0	-0.143154	-0.113374	-0.188298	0	0.048537	0	0	-0.0942849	0.177294	0.0529073	-0.140758	-0.205602	-0.0721518	0.764924	0.00611067	0	0	-0.0393172	-0.194545	0.568033	0.642224	0.885041	0	0
0.13	1.93102	1.42457	-0.416266	0.71978	-0.397479	0.976656	-0.0445325	0.108932	-0.19118	0.166356	0.0669652	0	0	-0.139266	-0.095468	-0.182712	0	0.0485776	0	0	-0.0847476	0.157921	0.0479168	-0.142218	-0.201152	-0.0715464	0.765205	0	0	0	-0.0448049	-0.20218	0.568893	0.652504	0.891902	0	0
0.14	1.92858	1.40639	-0.414728	0.720121	-0.398288	0.978246	-0.034614	0.120337	-0.238025	0.200666	0.0724725	0	0	-0.146456	-0.114402	-0.187444	0	0.0487244	0	0	-0.0955012	0.178123	0.0524413	-0.137314	-0.2058	-0.0699653	0.763824	0	0	0	-0.0380984	-0.195413	0.569039	0.64411	0.894774	0	0
0.15	1.93287	1.40676	-0.417598	0.72055	-0.398481	0.978226	-0.0338936	0.119792	-0.241485	0.203892	0.0748391	0	0	-0.146774	-0.114445	-0.186685	0	0.0492659	0	0	-0.0958803	0.177898	0.0516469	-0.135866	-0.205977	-0.068005	0.763343	0	0	0	-0.0369267	-0.195661	0.568348	0.644344	0.898112	0	0
0.16	1.93895	1.40671	-0.422669	0.720996	-0.39835	0.978221	-0.0347038	0.119948	-0.242692	0.204681	0.0759284	0	0	-0.14769	-0.11476	-0.185956	0	0.0494924	0	0	-0.0964773	0.177949	0.0511169	-0.134598	-0.206189	-0.0665083	0.762467	0	0	0	-0.0362241	-0.195818	0.567332	0.645013	0.901645	0	0
0.17	1.94508	1.40662	-0.427792	0.721458	-0.398257	0.97825	-0.0358083	0.120289	-0.243107	0.204737	0.0763971	0	0	-0.148521	-0.11507	-0.185255	0	0.0495405	0	0	-0.0972884	0.177895	0.0504521	-0.133247	-0.206327	-0.0650933	0.761014	0	0	0	-0.0356763	-0.196006	0.565817	0.646086	0.905068	0	0
0.18	1.95203	1.40643	-0.433789	0.721908	-0.398204	0.978294	-0.0368383	0.12056	-0.243918	0.205192	0.0767586	0	0	-0.149463	-0.115379	-0.184696	0	0.0496035	0	0	-0.0984692	0.177872	0.0498921	-0.132026	-0.206458	-0.0632113	0.760878	0	0	0	-0.0350831	-0.195962	0.563518	0.647066	0.908415	0	0
0.19	1.95806	1.40629	-0.438935	0.722339	-0.398165	0.978323	-0.0377675	0.120846	-0.24461	0.205457	0.0770855	0	0	-0.150244	-0.115672	-0.184127	0	0.0496275	0	0	-0.0995014	0.177925	0.0492627	-0.130921	-0.206795	-0.0601059	0.761699	0	0	0	-0.0346468	-0.195599	0.560321	0.647725	0.911822	0	0
0.2	1.96322	1.40626	-0.44338	0.722801	-0.398127	0.978352	-0.0385195	0.121085	-0.245258	0.205748	0.077608	0	0	-0.150882	-0.115867	-0.183763	0	0.0496326	0	0	-0.100351	0.177903	0.0488005	-0.130144	-0.207303	-0.0567777	0.762256	0	0	0	-0.0343978	-0.195237	0.557013	0.648589	0.915107	0	0
0.21	1.96811	1.40626	-0.447715	0.72324	-0.398094	0.978397	-0.0392415	0.121289	-0.245778	0.205966	0.0780955	0	0	-0.151521	-0.116033	-0.183632	0	0.0495896	0	0	-0.101227	0.177831	0.0486395	-0.129776	-0.207749	-0.0541381	0.762796	0	0	0	-0.034281	-0.194843	0.553468	0.649566	0.917893	0	0
0.22	1.97164	1.40625	-0.450868	0.723706	-0.3981	0.978433	-0.0395958	0.121493	-0.246563	0.206437	0.0786031	0	0	-0.151942	-0.116318	-0.183622	0	0.0494781	0	0	-0.10204	0.177782	0.048942	-0.129543	-0.208088	-0.0520636	0.763053	0	0	0	-0.0340923	-0.194158	0.548536	0.649866	0.917553	0	0
0.23	1.97383	1.40632	-0.452774	0.72418	-0.39813	0.978449	-0.0396937	0.121731	-0.247403	0.206762	0.0789517	0	0	-0.152091	-0.116657	-0.183575	0	0.0493491	0	0	-0.102725	0.177718	0.0496002	-0.129463	-0.208395	-0.0501589	0.763175	0	0	0	-0.0339081	-0.193061	0.54132	0.649126	0.911713	0	0
0.24	1.97717	1.40652	-0.455676	0.724606	-0.398168	0.978452	-0.0402414	0.121896	-0.24745	0.206531	0.0792251	0	0	-0.15236	-0.116776	-0.183218	0	0.0493199	0	0	-0.10338	0.177422	0.0499062	-0.12957	-0.208727	-0.0481884	0.763378	0	0	0	-0.0338558	-0.192216	0.535516	0.649662	0.907202	0	0
0.25	1.98029	1.40672	-0.458432	0.72504	-0.398198	0.978451	-0.0408874	0.122156	-0.247226	0.206075	0.0794439	0	0	-0.152583	-0.116907	-0.182848	0	0.049307	0	0	-0.10393	0.177127	0.0500166	-0.129695	-0.209012	-0.0462996	0.76351	0	0	0	-0.0339815	-0.19151	0.530789	0.651254	0.906006	0	0
0.26	1.98299	1.40691	-0.460869	0.725488	-0.398241	0.978456	-0.0412875	0.122365	-0.247325	0.205918	0.0797343	0	0	-0.152744	-0.117083	-0.182505	0	0.0493037	0	0	-0.104444	0.176788	0.0501782	-0.129957	-0.209219	-0.0448374	0.763638	0	0	0	-0.0341793	-0.190816	0.526772	0.65363	0.90946	0	0
0.27	1.98537	1.407	-0.463148	0.725944	-0.398275	0.978462	-0.0413979	0.122559	-0.247704	0.206318	0.0801956	0	0	-0.152943	-0.11736	-0.182344	0	0.0493661	0	0	-0.10505	0.176529	0.0508372	-0.13066	-0.209415	-0.0440614	0.764109	0	0	0	-0.0344556	-0.190005	0.523371	0.656585	0.918989	0	0
